<?xml version="1.0" standalone="no"?>
<!DOCTYPE svg PUBLIC "-//W3C//DTD SVG 1.1//EN" "http://www.w3.org/Graphics/SVG/1.1/DTD/svg11.dtd" >
<svg xmlns="http://www.w3.org/2000/svg">
<metadata>
Created by FontForge 20120731 at Sun Jan  8 15:35:49 2017
 By admin
</metadata>
<defs>
<font id="iconfont" horiz-adv-x="1024" >
  <font-face 
    font-family="iconfont"
    font-weight="500"
    font-stretch="normal"
    units-per-em="1024"
    panose-1="2 0 6 3 0 0 0 0 0 0"
    ascent="896"
    descent="-128"
    x-height="792"
    bbox="-57 -167.524 1045 896"
    underline-thickness="0"
    underline-position="0"
    unicode-range="U+0078-E736"
  />
<missing-glyph 
 />
    <glyph glyph-name=".notdef" 
 />
    <glyph glyph-name=".notdef" 
 />
    <glyph glyph-name=".null" horiz-adv-x="0" 
 />
    <glyph glyph-name="nonmarkingreturn" horiz-adv-x="341" 
 />
    <glyph glyph-name="x" unicode="x" horiz-adv-x="1001" 
d="M281 543q-27 -1 -53 -1h-83q-18 0 -36.5 -6t-32.5 -18.5t-23 -32t-9 -45.5v-76h912v41q0 16 -0.5 30t-0.5 18q0 13 -5 29t-17 29.5t-31.5 22.5t-49.5 9h-133v-97h-438v97zM955 310v-52q0 -23 0.5 -52t0.5 -58t-10.5 -47.5t-26 -30t-33 -16t-31.5 -4.5q-14 -1 -29.5 -0.5
t-29.5 0.5h-32l-45 128h-439l-44 -128h-29h-34q-20 0 -45 1q-25 0 -41 9.5t-25.5 23t-13.5 29.5t-4 30v167h911zM163 247q-12 0 -21 -8.5t-9 -21.5t9 -21.5t21 -8.5q13 0 22 8.5t9 21.5t-9 21.5t-22 8.5zM316 123q-8 -26 -14 -48q-5 -19 -10.5 -37t-7.5 -25t-3 -15t1 -14.5
t9.5 -10.5t21.5 -4h37h67h81h80h64h36q23 0 34 12t2 38q-5 13 -9.5 30.5t-9.5 34.5q-5 19 -11 39h-368zM336 498v228q0 11 2.5 23t10 21.5t20.5 15.5t34 6h188q31 0 51.5 -14.5t20.5 -52.5v-227h-327z" />
    <glyph glyph-name="zhengque" unicode="&#xe600;" 
d="M514 837q93 0 174.5 -35.5t142.5 -97t96.5 -143.5t35.5 -175t-35.5 -175.5t-96.5 -144t-142.5 -97t-174.5 -35.5t-175 35.5t-143 97t-96 144t-35 175.5t35 175t96 143.5t143 97t175 35.5zM796 472q18 18 19 45.5t-17.5 46t-45 18t-44.5 -19.5l-289 -289l-100 99
q-18 18 -44.5 18.5t-45 -18t-19 -43.5t17.5 -43l143 -144q18 -18 48 -17.5t48 18.5l-4 -4z" />
    <glyph glyph-name="tengxunweibo" unicode="&#xe60e;" 
d="M517 891q92 0 172.5 -35t140.5 -95t94.5 -140t34.5 -171q0 -93 -34.5 -173t-94.5 -140t-140.5 -95t-172.5 -35h-13q-6 0 -12 1h-5q-15 2 -25.5 14t-10.5 28q0 18 12 30t30 12q4 0 12 -2l1 1h11q74 0 139.5 28t114 77t77 114.5t28.5 139t-28.5 139t-77 114t-114 76.5
t-139.5 28t-139.5 -28t-113.5 -76.5t-76 -114t-28 -138.5q0 -76 29 -144q7 -9 7 -22q0 -18 -12.5 -30t-29.5 -12q-12 0 -20.5 4.5t-14.5 12.5q-21 43 -32 90.5t-11 100.5q0 91 34.5 171t94.5 140t140.5 95t171.5 35zM722 450q0 -42 -16 -79.5t-43.5 -65t-65 -44t-80.5 -16.5
q-35 0 -66 10.5t-57 31.5q-11 -14 -28.5 -34t-37 -44.5t-40 -51.5t-37.5 -54q-26 -38 -48 -78.5t-38 -74.5q-20 -40 -36 -78l-105 4q15 44 37 92q20 41 48 91.5t67 100.5q22 27 45.5 55t46 52.5t42 44.5t32.5 33q-29 48 -29 105q0 42 16 79t43.5 65t65 43.5t79.5 15.5
q43 0 80.5 -15.5t65 -43.5t43.5 -65t16 -79z" />
    <glyph glyph-name="xinlang" unicode="&#xe603;" horiz-adv-x="1000" 
d="M368 370q-32 -4 -56.5 -15t-38.5 -25t-23.5 -32t-13 -32.5t-5 -29.5t-1 -20.5t0.5 -8.5v0q0 -2 0.5 -5t2.5 -12.5t5.5 -17.5t12.5 -18t21 -16q70 -34 131.5 -20.5t98.5 61.5q14 18 19 44.5t-2 54t-24 50.5t-50.5 35t-77.5 7zM329 166.5q-22 -2.5 -37 8.5t-15 29
q0 19 14 34.5t35 17.5q25 2 40 -9.5t15 -30.5q0 -18 -15 -32.5t-37 -17zM420 244.5q-7 -5.5 -15 -5t-12 7.5q-4 6 -2.5 15t9.5 14q8 6 16 5t12 -7.5t1.5 -15t-9.5 -14zM782 765q-53 12 -126 -2q-1 0 -2 -0.5l-1 -0.5l-1 -1q-12 -3 -19.5 -13t-7.5 -22q0 -16 10.5 -26.5
t26.5 -10.5q20 2 33 8q6 0 19 1.5t35 -4t44 -14t45.5 -28t39.5 -46.5q28 -63 11 -122q-7 -18 -7 -35q0 -15 10.5 -24.5t26 -9.5t24 6t11.5 26v0q19 59 14.5 107.5t-21 84t-45.5 62t-58.5 41.5t-61.5 23zM801 469q9 0 16 6t9 15v2q4 35 -1.5 61.5t-17.5 41t-27.5 24t-32 12.5
t-30 3.5t-21.5 -0.5l-9 -1q-10 0 -17.5 -7.5t-7.5 -18t7.5 -18t17.5 -7.5q33 7 52.5 1t27.5 -21t10 -30t0 -27l-2 -11q0 -11 7.5 -18t18.5 -7zM726 406q-17 3 -21.5 9.5t-1.5 12.5l4 5q1 2 3.5 6t6 16.5t4.5 24.5t-4 27t-17 27q-15 15 -39 20t-48 1t-46 -10t-35 -12l-14 -6
q-10 -3 -17 -4t-11 0.5t-6 3t-2 7.5t1 10t3 13.5t3 14.5q0 16 -2.5 29.5t-11.5 29t-24 23t-43 7t-65 -12.5q-37 -13 -75.5 -38.5t-67.5 -52.5t-52.5 -52.5t-36 -42l-12.5 -16.5q-22 -29 -36.5 -59t-20.5 -51.5t-8.5 -39t-2.5 -26.5t1 -9q5 -51 30.5 -91.5t60 -66t82 -43
t90.5 -25.5t92 -12q80 -6 165 12.5t158.5 64.5t103.5 111q18 38 18.5 71t-11.5 54t-30.5 37t-35 23t-29.5 10zM399 73q-116 -5 -197 45t-81 127t80.5 132t197.5 60q117 6 197.5 -38.5t80.5 -119.5q0 -78 -82 -139.5t-196 -66.5z" />
    <glyph glyph-name="dianhua" unicode="&#xe604;" 
d="M605 813q-3 0 -6 1q-15 0 -26.5 -9t-14.5 -24q-4 -16 5.5 -30t25.5 -17q64 -13 117 -49t89 -91q74 -112 47 -244q-4 -16 5.5 -30t25.5 -17q3 -1 7 -1q12 -1 23 6q14 10 18 26q22 108 -12.5 210t-115 174.5t-188.5 94.5v0zM675 207q57 -37 96 -77q41 -43 41 -74
q-1 -31 -37 -64q-8 -8 -21 -18t-49 -24t-74 -14q-35 0 -71 11q-38 12 -76 35q-75 44 -135 103t-114 143q-44 66 -73 134t-39.5 121t-13.5 81.5t-3 48.5q0 40 13 75t29.5 56t38 39t32.5 24t19 10q28 12 50 12q11 0 21 -3q28 -8 43 -40q26 -57 43 -141q2 -12 2 -22t-1.5 -17
t-6 -13.5t-8.5 -11t-11.5 -9t-12 -7t-12.5 -6.5l-1 -1q-54 -22 -63 -26q-7 -3 -10.5 -10t-0.5 -14q33 -100 95 -196q61 -94 138 -165q5 -5 13 -5h1q9 1 14 7q17 23 34 38q37 36 69 36q8 0 16.5 -2.5t24.5 -13.5v0v0zM505 482q-16 4 -25 18t-6 30q3 15 14.5 24t26.5 8
q3 0 7 -1q70 -14 109.5 -74t24.5 -130q-3 -17 -17 -26q-11 -7 -24 -7q-3 1 -6 1q-17 4 -26 17.5t-6 30.5q8 37 -13 69.5t-59 39.5v0zM547 609q-16 3 -25 17t-6 30q3 15 14.5 24t26.5 8h7q117 -25 183 -125t42 -218q-3 -16 -17 -25q-11 -8 -24 -7q-3 0 -7 1q-16 3 -25 17
t-6 30q18 85 -30 157.5t-133 90.5z" />
    <glyph glyph-name="QQqun" unicode="&#xe605;" 
d="M492 265q-7 1 -11 12t-4 21l-1 11q5 4 13 13t22.5 36t19.5 53q12 0 21 16.5t8 37t-13 31.5l1 13.5t2 24.5t-0.5 29t-6 32.5t-14 30.5t-23.5 26.5t-37.5 17.5t-53 7t-52.5 -7t-37 -17.5t-24 -26.5t-14 -30.5t-5.5 -32.5t-1 -29t2 -24.5l1.5 -13.5q-12 -11 -13 -31.5
t7.5 -37t21.5 -16.5q4 -26 18 -51.5t25 -38.5l11 -12q0 -42 -15 -44q-21 -3 -57.5 -18.5t-76.5 -38.5t-68.5 -55t-28.5 -63h614q0 31 -29 63t-68.5 55t-76.5 38.5t-57 18.5zM696 275q-6 1 -10 11.5t-4 19.5l-1 10q5 5 12 13.5t21 33.5t19 50q11 0 19.5 15.5t7.5 35t-12 29.5
l1 13t1.5 23t-1 27t-5 30.5t-12.5 28.5t-22.5 25.5t-35.5 17t-50 6.5q-22 0 -41 -4q16 -11 27 -26.5t15.5 -30.5t6.5 -33.5t1.5 -30t-2 -25.5t-1.5 -15q12 -10 13 -31t-8 -37t-21 -16q-9 -51 -49 -97l2 -2q0 -18 -4 -30q4 -16 12 -18q27 -4 74.5 -25t96.5 -58.5t58 -74.5
h110q0 29 -27.5 59.5t-65 52t-72 36t-53.5 17.5z" />
    <glyph glyph-name="weixin" unicode="&#xe606;" 
d="M669 579q14 0 30 -2q-20 95 -110.5 157.5t-206.5 62.5q-130 0 -222 -77.5t-92 -189.5q0 -124 126 -212l-31 -94l109 55q80 -16 110 -16q14 0 30 1q-10 33 -10 66q0 103 77.5 176t189.5 73zM500 664q18 0 28.5 -11t10.5 -28.5t-10.5 -28.5t-28.5 -11t-32.5 11.5
t-14.5 28.5t14.5 28t32.5 11zM280 585q-18 0 -32.5 11.5t-14.5 28.5t14.5 28t32.5 11t29 -11t11 -28.5t-11 -28.5t-29 -11zM956 334q0 93 -80 160.5t-187 67.5q-112 0 -189.5 -67t-77.5 -161.5t77.5 -161t189.5 -66.5q31 0 94 16l86 -47l-23 78q110 83 110 181zM602 373
q-11 0 -21 10t-10 21.5t10 21.5t21 10q17 0 28.5 -9.5t11.5 -22t-11.5 -22t-28.5 -9.5zM775 373q-12 0 -21.5 10t-9.5 21.5t9.5 21.5t21.5 10q17 0 28 -9.5t11 -22t-11 -22t-28 -9.5z" />
    <glyph glyph-name="iconfontcha" unicode="&#xe652;" 
d="M755 599l-243 -242l-243 242q-10 10 -23.5 10t-23.5 -9.5t-10 -23.5t10 -24l243 -243l-243 -243q-10 -9 -10 -23t10 -24t23.5 -10t23.5 10l243 243l243 -243q10 -10 23.5 -10t23.5 10t10 24t-10 23l-243 243l243 243q10 10 10 24t-10 23.5t-23.5 9.5t-23.5 -10z" />
    <glyph glyph-name="qq" unicode="&#xe607;" 
d="M139 317q-24 -59 -27.5 -108t15.5 -60q13 -7 32.5 7.5t38.5 45.5q16 -66 72 -116q-29 -11 -45.5 -28.5t-16.5 -37.5q0 -34 43.5 -57.5t105.5 -23.5q56 0 97.5 19.5t50.5 48.5h18q8 -29 50 -48.5t98 -19.5q62 0 105.5 23.5t43.5 57.5q0 20 -16.5 37.5t-45.5 28.5
q56 50 71 116q20 -31 39 -45.5t32 -7.5q19 11 16 60t-27 108q-19 46 -42 78t-43 40q1 7 1 12q0 35 -17 64v4q0 16 -7 30q-5 125 -77.5 207t-190 82t-189.5 -82t-77 -207q-7 -14 -7 -30v-4q-17 -29 -17 -64q0 -5 1 -12q-20 -8 -43.5 -40t-41.5 -78z" />
    <glyph glyph-name="unie61d" unicode="&#xe60f;" 
d="M-57 853v0v0zM743 324q-16 4 -21 10.5t-2 11.5l3 6q2 1 3 3.5t4 9.5t5 14t3 17.5t-0.5 20t-6.5 20.5t-14 20q-16 15 -40.5 19.5t-49.5 0.5t-47 -10t-36 -11l-15 -7q-11 -3 -18 -4t-11 0.5t-6 3t-1.5 7.5t1 10.5t2.5 14t3 15.5q0 13 -1.5 24.5t-7 26t-16 23t-26.5 14
t-41.5 3.5t-57.5 -13q-38 -13 -78 -39t-69 -54.5t-53.5 -54.5t-37.5 -43l-12 -18q-36 -47 -54 -94.5t-17 -71.5v-23q7 -53 33 -95t62 -68t84.5 -44.5t93 -26.5t94.5 -11q81 -7 169 12.5t163.5 66.5t106.5 114q19 38 19.5 72.5t-12 56t-31.5 38t-36 24t-31 9.5v0zM407 -19
q-119 -5 -202.5 46.5t-83.5 131.5q0 78 83 135t203 62.5t203 -40t83 -123.5q0 -79 -84.5 -142.5t-201.5 -69.5v0zM375 287q-32 -3 -57.5 -15t-40 -26.5t-24.5 -32t-13.5 -34t-4.5 -30t-1 -21.5l1 -9v-4q0 -3 2 -13t6 -18.5t12.5 -18.5t21.5 -16q72 -36 135 -22t102 64
q15 18 20 46t-2 56t-24.5 51t-52.5 35.5t-80 7.5v0zM335 78q-7 -1 -13 -0.5t-11 2.5t-9.5 4t-8 6t-6.5 7.5t-4.5 9t-1.5 10.5q0 12 6.5 23.5t18 20t26.5 9.5q10 1 19.5 -0.5t16 -5.5t11.5 -9t7 -11.5t2 -14.5q0 -12 -7 -23t-19.5 -18.5t-26.5 -9.5v0zM429 158
q-8 -6 -16 -5.5t-12 7.5l-2 4q-1 3 -1 5v4q0 4 1 6l2 4q1 2 4 3l3 5q9 7 17 5.5t12 -8.5q3 -5 2.5 -10.5t-3.5 -10.5t-7 -9v0zM821 388q6 0 11.5 3.5t9 8.5t4.5 10q1 2 1 4q13 126 -88 143q-30 6 -55 1q-8 0 -13.5 -3.5t-9.5 -10t-4 -12.5q0 -11 8 -19t19 -8q86 20 92 -55
q2 -19 -2 -35q0 -11 8 -19t19 -8v0zM802 700q-49 11 -130 -5q-1 0 -3 -1l-1 -2l-1 -1q-12 -4 -19.5 -14.5t-7.5 -22.5q0 -16 11 -27t26 -11h3q2 0 5.5 1t8 1.5t9.5 2t9 3.5t15 2t27 -2t35 -8.5t38.5 -16.5t39 -27.5t33.5 -40.5q29 -65 11 -126q0 -1 -0.5 -2t-1.5 -5.5
t-2 -8.5l-2.5 -10t-1.5 -10q0 -10 5.5 -17t14 -9.5t19.5 -2.5q31 0 36 37q14 43 15.5 82.5t-5.5 69t-21.5 55.5t-33.5 44.5t-42 33t-44.5 23.5t-44.5 15v0z" />
    <glyph glyph-name="bianji" unicode="&#xe69a;" 
d="M126 -86l198 62l458 458l-136 136l-458 -458zM748 672l-56 -57l135 -135l57 56q14 14 14 34t-14 34l-68 68q-14 14 -34 14t-34 -14z" />
    <glyph glyph-name="mima" unicode="&#xe736;" 
d="M760 371v103q0 5 -0.5 14t-5 34t-13 48t-26.5 50.5t-42.5 47.5t-64.5 34t-89.5 14t-89.5 -13.5t-64.5 -34.5t-42.5 -47t-26 -51.5t-13 -47t-6 -34.5v-14v-103h-104v-484h691v484h-104zM553 104v-113h-69v113q-34 20 -34 59q0 29 20 49.5t48.5 20.5t49 -20.5t20.5 -49.5
q0 -39 -35 -59zM691 371h-345v103q0 14 2 29.5t12.5 43t27.5 48t51 36.5t79.5 16t80 -16t51.5 -36.5t27 -48t12 -43t2 -29.5v-103z" />
    <glyph glyph-name="guanbi" unicode="&#xe614;" 
d="M855 552q8 9 8 21t-8 20l-50 50q-8 8 -20 8t-21 -8l-231 -232q-9 -9 -21 -9t-21 9l-231 232q-9 8 -21 8t-20 -8l-50 -50q-8 -8 -8 -20t8 -21l232 -231q9 -9 9 -21t-9 -21l-232 -231q-8 -9 -8 -21t8 -20l50 -50q8 -8 20 -8t21 8l231 232q9 9 21 9t21 -9l231 -232
q9 -8 21 -8t20 8l50 50q8 8 8 20t-8 21l-232 231q-9 9 -9 21t9 21z" />
    <glyph glyph-name="gou1" unicode="&#xe666;" 
d="M800 567l-413 -413l-163 163q-18 18 -44 18t-44.5 -18t-18.5 -44t19 -44l195 -196q20 -20 56 -18q36 -2 56 18l445 445q19 19 19 44.5t-18.5 44t-44.5 18.5t-44 -18z" />
    <glyph glyph-name="kongjian" unicode="&#xe669;" 
d="M668 431q-12 28 -29 69t-27.5 66.5t-24.5 57t-23 50t-18.5 36.5t-17 25.5t-12.5 7.5q-9 0 -21.5 -15.5t-30.5 -52.5t-31 -65t-38.5 -88t-36.5 -86q-41 -3 -101.5 -6.5t-91.5 -6t-65.5 -6t-50 -9t-17.5 -12.5q-4 -14 38.5 -54t145.5 -127q35 -31 54 -47
q-6 -30 -13.5 -69.5t-13 -66.5t-12.5 -61t-10 -52.5t-6.5 -41.5t-3 -29t1.5 -14q4 -4 22 2.5t58 28t71.5 39.5t97.5 56q35 20 53 31q31 -19 84 -51l79.5 -48t59 -33.5t49 -22.5t22.5 0q8 5 0 58t-30 172q-7 37 -10 56q-14 -2 -47.5 -7.5t-51 -8t-52 -5.5t-73.5 -3
q-61 -1 -122 3t-95.5 8.5t-34.5 7.5t67 44q6 4 24.5 16.5t45 31t57.5 40.5q14 11 39 29t44 32t33 24q-2 0 -41 2q-11 1 -77.5 6t-135.5 9.5t-110 5.5l106 15q85 9 162 10q63 1 122.5 -4t88 -10t28.5 -7t-35.5 -26t-56.5 -37q-1 0 -49 -31.5t-85 -59.5q-2 -1 -19 -13.5
t-33 -25t-24 -20.5q44 -8 155 -12q8 -1 168 -5q-4 22 -7 38q29 25 75.5 66t69 61t48 44.5t34 38t5.5 20.5q-2 6 -20 10t-52.5 7t-68.5 4.5t-89 4.5t-94 6z" />
    <glyph glyph-name="gou" unicode="&#xe641;" horiz-adv-x="1025" 
d="M512 896q-104 0 -199 -40.5t-163.5 -109t-109 -163.5t-40.5 -199t40.5 -199t109 -163.5t163.5 -109t199 -40.5t199 40.5t163.5 109t109 163.5t40.5 199t-40.5 199t-109 163.5t-163.5 109t-199 40.5zM806 517l-331 -331h-1q-11 -12 -27 -13.5t-29 6.5q-5 3 -9 7v0
l-191 190q-13 14 -13 33t13.5 32.5t32.5 13.5t33 -13l158 -158l298 298q14 14 33 14t32.5 -13.5t13.5 -33t-13 -32.5z" />
    <glyph glyph-name="anquan" unicode="&#xe682;" 
d="M922 752q-19 17 -45 17h-5h-28q-74 0 -132 14q-30 7 -64 28t-65.5 46.5t-34.5 27.5q-17 11 -37.5 11t-36.5 -11l-5.5 -5t-14 -12.5t-20 -17.5t-26 -20t-29.5 -19.5t-32.5 -17t-33.5 -10.5q-58 -14 -133 -14h-28h-5q-26 0 -45 -17q-21 -19 -21 -47v-160q0 -95 14 -179
t36.5 -145t54.5 -113t63.5 -86.5t68.5 -62t65 -42.5t56.5 -26t40 -14t19.5 -4q7 -1 11 -1q7 0 12 1q8 1 19.5 4t40.5 14t57 26t65.5 42.5t69 62t64 86.5t55 113t36.5 145t14 179v160q0 28 -21 47v0zM774 523l-278 -269q-3 -5 -7 -8q-12 -12 -29 -12q-18 0 -30 12q-3 3 -6 8
l-149 144q-12 11 -12 27.5t12 28t29 11.5t28 -12l128 -123l257 248q11 12 28 12t29 -11.5t12 -28t-12 -27.5v0zM774 523z" />
    <glyph glyph-name="mimaguanli" unicode="&#xe6a6;" horiz-adv-x="1025" 
d="M512 677q-37 0 -65 -13.5t-42 -31t-22 -40.5t-10 -36.5t-2 -25.5v-87h282v88q0 11 -2 24.5t-10 36.5t-22 40.5t-42 31t-65 13.5zM512 325q-23 0 -39.5 -17t-16.5 -41q0 -34 28 -51v-96h56v96q28 17 28 51q0 24 -16.5 41t-39.5 17zM512 896q-104 0 -199 -40.5t-163.5 -109
t-109 -163.5t-40.5 -199t40.5 -199t109 -163.5t163.5 -109t199 -40.5t199 40.5t163.5 109t109 163.5t40.5 199t-40.5 199t-109 163.5t-163.5 109t-199 40.5zM793 32h-562v411h84v88q0 4 0.5 11.5t4.5 28.5t10.5 40.5t21.5 43t35 40.5t52.5 29t72.5 12t72.5 -11.5t52.5 -29.5
t35 -40t21.5 -44t10.5 -40t5 -29v-11v-88h84v-411z" />
    <glyph glyph-name="wo" unicode="&#xe677;" 
d="M913 81q-57 55 -145 98.5t-137 53.5q-5 9 -6 31q57 64 74 138q25 12 37 46q10 23 8 53.5t-18 50.5v2q16 145 -46 214q-56 62 -166 62t-166 -62q-62 -69 -47 -214v-1.5v-0.5q-16 -20 -17.5 -50.5t7.5 -53.5q13 -34 38 -46q17 -74 74 -138q-2 -22 -6 -31
q-51 -10 -140.5 -54.5t-145.5 -101.5v-6v0v-67v0v-38q0 -11 8 -19.5t20 -8.5h746q12 0 20 8.5t8 19.5v66v0v49z" />
    <glyph glyph-name="iconfontrili" unicode="&#xe615;" horiz-adv-x="1046" 
d="M374 283h-150v149h150v-149v0zM600 432h-150v-149h150v149v0zM826 432h-150v-149h150v149v0zM374 214h-150v-150h150v150v0zM600 214h-150v-150h150v150v0zM826 214h-150v-150h150v150v0zM881 734q0 -19 -13.5 -32.5t-32.5 -13.5t-32.5 13.5t-13.5 32.5v116
q0 19 13.5 32.5t32.5 13.5t32.5 -13.5t13.5 -32.5v-116v0zM258 850q0 19 -13.5 32.5t-32.5 13.5t-32.5 -13.5t-13.5 -32.5v-116q0 -19 13.5 -32.5t32.5 -13.5t32.5 13.5t13.5 32.5v116v0zM937 783v-48q0 -42 -30 -71.5t-72 -29.5t-72 29.5t-30 71.5v48h-419v-47
q0 -43 -30 -72.5t-72 -29.5t-72 29.5t-30 72.5v47h-110v-911h1045v911h-108v0zM944 -27h-843v565h843v-565v0zM944 -27z" />
    <glyph glyph-name="tuijian" unicode="&#xe610;" 
d="M797 833h-144v-433h144v433zM365 833h-145v-433h145v433zM869 362l-271 6l-49 141h32v324h-144v-324h32l-49 -141l-272 -6l217 -164l-79 -260l223 155l223 -155l-79 260z" />
    <glyph glyph-name="qianbao" unicode="&#xe62c;" 
d="M722 325zM911 648h-748q-2 1 -5.5 2t-13.5 4.5t-17.5 8.5t-13.5 13t-6 18l815 80v68q0 2 -0.5 4t-3.5 8.5t-7.5 11t-12 11.5t-18 9.5t-25.5 4.5t-35 -3l-724 -126q-4 0 -10 -1.5t-22 -9.5t-27.5 -20.5t-21.5 -37t-10 -56.5v-651q0 -47 33 -80.5t80 -33.5h793
q47 0 80 33.5t33 80.5v548q0 47 -33.5 80.5t-79.5 33.5v0zM843 180q-33 0 -56.5 23.5t-23.5 56.5t23.5 56.5t56.5 23.5t56 -23.5t23 -56.5t-23 -56.5t-56 -23.5v0zM843 180z" />
    <glyph glyph-name="iconfont16x16moban" unicode="&#xe611;" horiz-adv-x="1025" 
d="M425 891v-323q0 -168 -84 -306.5t-220 -204.5q-121 144 -121 330q0 125 56 233q55 109 153 180q97 71 216 91v0v0zM755 -61q-114 -62 -245 -62t-245 62q92 59 157 141.5t88 178.5q23 -96 88 -179q66 -83 157 -141v0v0zM1024 387q0 -186 -121 -330q-135 66 -220 205
q-84 138 -84 306v323q119 -20 216 -91t153 -180q56 -108 56 -233v0v0zM1024 387zM425 891v-323q0 -168 -84 -306.5t-220 -204.5q-121 144 -121 330q0 125 56 233q55 109 153 180q97 71 216 91v0v0zM755 -61q-114 -62 -245 -62t-245 62q92 59 157 141.5t88 178.5
q23 -96 88 -179q66 -83 157 -141v0v0zM1024 387q0 -186 -121 -330q-135 66 -220 205q-84 138 -84 306v323q119 -20 216 -91t153 -180q56 -108 56 -233v0v0zM1024 387z" />
    <glyph glyph-name="icon1460191693668" unicode="&#xe656;" 
d="M859 347q8 0 13 5.5t5 12.5v243q0 22 -12 40l-0.5 1l-0.5 1l-1 1l-1 1q-22 27 -56 27h-588q-30 0 -50.5 -21t-20.5 -50v-431q0 -29 20.5 -50t50.5 -21h588q30 0 50.5 21t20.5 50v59q0 8 -5 13.5t-13 5.5t-13.5 -5.5t-5.5 -13.5v-55q0 -16 -11 -27t-26 -11h-582
q-15 0 -26 11t-11 27v423q0 2 1 6l327 -267v0q4 -3 9 -3h3.5h2.5q6 0 10 3v0l303 264v-1v-2v-239q0 -7 5.5 -12.5t13.5 -5.5v0v0zM221 642h582q7 0 14 -3l-293 -256l-313 257q5 2 10 2v0v0z" />
    <glyph glyph-name="06" unicode="&#xe612;" 
d="M508.5 894q-102.5 0 -195.5 -40t-160.5 -107.5t-107.5 -160.5t-40 -195.5t40 -195.5t107.5 -160.5t160.5 -107.5t195.5 -40t195.5 40t160.5 107.5t107.5 160.5t40 195.5t-40 195.5t-107.5 160.5t-160.5 107.5t-195.5 40zM760 202l-63 -63l-189 189l-188 -189l-63 63
l189 188l-189 189l63 63l188 -189l189 189l63 -63l-189 -189z" />
    <glyph glyph-name="fanhuidingbu" unicode="&#xe63b;" 
d="M832 704h-639q-21 0 -36 15t-15 36v25q0 21 15 36t36 15h639q21 0 36 -15t15 -36v-25q0 -21 -15 -36t-36 -15v0zM172 366l276 219q4 5 7 8q19 19 45 23q3 1 5 1h7.5h7.5q2 0 5 -1q26 -4 46 -23q2 -3 6 -8l276 -219q44 -43 -3 -89q-36 -36 -100 27l-174 137v-453
q0 -21 -14.5 -36t-36.5 -15h-25q-21 0 -36 15t-15 36v453l-174 -137q-64 -63 -100 -27q-47 46 -3 89v0z" />
    <glyph glyph-name="icon-yxj-money-copy" unicode="&#xe613;" 
d="M512 806q-115 0 -212 -56.5t-153.5 -153.5t-56.5 -212t56.5 -212t153.5 -153.5t212 -56.5t212 56.5t153.5 153.5t56.5 212t-56.5 212t-153.5 153.5t-212 56.5zM681 397h-144v-72h114q12 0 20 -8t8 -19.5t-8 -19.5t-20 -8h-114v-128q0 -11 -8 -19t-19.5 -8t-19.5 8t-8 19
v128h-109q-12 0 -20 8t-8 19.5t8 19.5t20 8h109v72h-139q-11 0 -19 8t-8 19t8 19.5t19 8.5h110l-118 126q-8 9 -7.5 20.5t9 19.5t20 7.5t19.5 -9.5l134 -146l134 146q8 9 19.5 9.5t20 -7.5t9 -19.5t-7.5 -20.5l-117 -126h113q11 0 19 -8.5t8 -19.5t-8 -19t-19 -8z" />
    <glyph glyph-name="shenfenrenzheng" unicode="&#xe647;" 
d="M498.5 -102q-101.5 0 -193.5 39.5t-159 106.5t-106.5 159.5t-39.5 193.5t39.5 193.5t106.5 159t159 106.5t193.5 40t194 -40t159 -106.5t106 -159t39.5 -193.5t-39.5 -193.5t-106 -159.5t-159 -106.5t-194 -39.5zM521 240l-20 -28q0 -1 -1 -2.5t-1.5 -7t0 -10t5 -9.5
t11.5 -9q21 -9 37.5 -20t27 -21.5t17 -18.5t12.5 -17t8 -11q8 -10 19.5 -9.5t17.5 12.5q5 10 18 40.5t26 56t34.5 59.5t53.5 68t73 64q-48 -17 -88.5 -44t-64.5 -52t-41 -48.5t-23.5 -36.5t-6.5 -14q-3 5 -9.5 13.5t-25 26.5t-35.5 24q-16 6 -26 4.5t-14 -5.5zM495 129
q-33 14 -43 45q-11 32 6 62q1 3 2 4l19 28q22 33 65 33q19 0 40 -8q21 -9 43 -28q11 15 26 33q-42 24 -93 41q-5 2 -9 6t-8.5 17.5t4.5 34.5v0q29 31 46.5 76.5t17.5 93.5q0 71 -38.5 110.5t-97.5 39.5t-97 -39.5t-38 -110.5q0 -48 17.5 -94t46.5 -76q9 -19 3.5 -32.5
t-10.5 -18.5t-10 -7q-69 -25 -120 -61t-51 -72v-20q0 -87 260 -87q33 0 64 2q-19 16 -45 28z" />
    <glyph glyph-name="shouji" unicode="&#xe601;" horiz-adv-x="1025" 
d="M513 896q-104 0 -199 -40.5t-163.5 -109t-109 -163.5t-40.5 -199t40.5 -198.5t109 -163t163.5 -109.5t199 -41t198.5 41t163 109.5t109.5 163t41 198.5t-41 199t-109.5 163.5t-163 109t-198.5 40.5zM734 139q0 -30 -22.5 -50.5t-54.5 -20.5h-289q-31 0 -54 20.5t-23 50.5
v491q0 29 23 50t54 21h289q32 0 54.5 -21t22.5 -50v-491zM513 145q-11 0 -19.5 -7t-8.5 -17.5t8.5 -18t19.5 -7.5t19 7.5t8 18t-8 17.5t-19 7zM348 624h329v-453h-329v453zM471 649h83q7 0 7 6.5t-7 6.5h-83q-7 0 -7 -6.5t7 -6.5zM680 138zM568 138q0 -46 32.5 -79t79 -33
t79.5 33t33 79t-33 79t-79.5 33t-79 -33t-32.5 -79zM672 110q4 -4 4 -9t-3.5 -8.5t-8.5 -3.5t-9 4l-43 40q-4 4 -4 9t3.5 8.5t8.5 3.5t8 -3zM678 97q-13 -13 -21.5 -5t4.5 22l64 69q13 13 22 5t-4 -22z" />
    <glyph glyph-name="youjian" unicode="&#xe602;" 
d="M512 896q-139 0 -257 -68.5t-186.5 -186.5t-68.5 -257t68.5 -257t186.5 -186.5t257 -68.5t257 68.5t186.5 186.5t68.5 257t-68.5 257t-186.5 186.5t-257 68.5zM799 585l-286 -299l-289 299h575zM205 541l160 -162l-160 -160v322zM225 175l170 177l117 -120l116 120
l172 -177h-575zM819 219l-164 160l164 165v-325zM779 211zM668 210.5q0 -46.5 32.5 -79t79 -32.5t79 32.5t32.5 79t-32.5 79.5t-79 33t-79 -33t-32.5 -79.5zM771 183q4 -4 4 -9t-3.5 -8.5t-8.5 -3.5q-4 0 -8 3l-43 41q-4 3 -4 9q0 4 3 8q4 4 9 4t8 -4zM778 170
q-13 -14 -22 -5.5t4 21.5l65 69q13 14 21.5 6t-4.5 -22z" />
    <glyph glyph-name="eth" unicode="&#xe608;" horiz-adv-x="1029" 
d="M517 896q-104 0 -199 -40.5t-163.5 -109t-109 -163.5t-40.5 -199t40.5 -199t109 -163.5t163.5 -109t199 -40.5t199 40.5t163.5 109t109 163.5t40.5 199t-40.5 199t-109 163.5t-163.5 109t-199 40.5zM517.5 -71q-92.5 0 -177 36t-145.5 97t-97 145t-36 177t36 177t97 145
t145.5 97t177 36t176.5 -36t145 -97t97 -145t36 -177t-36 -177t-97 -145t-145 -97t-176.5 -36zM517.5 699q-130.5 0 -223 -92t-92.5 -223t92.5 -223t223 -92t222.5 92t92 223t-92 223t-222.5 92zM515 129l-155 222l155 -92v-130zM515 280l-159 95l159 264v-359zM520 639
l158 -264l-158 -95v359zM522 129v130l156 92z" />
    <glyph glyph-name="laitebi" unicode="&#xe609;" horiz-adv-x="1029" 
d="M517 896q-104 0 -199 -40.5t-163.5 -109t-109 -163.5t-40.5 -199t40.5 -199t109 -163.5t163.5 -109t199 -40.5t199 40.5t163.5 109t109 163.5t40.5 199t-40.5 199t-109 163.5t-163.5 109t-199 40.5zM517.5 -71q-92.5 0 -177 36t-145.5 97t-97 145t-36 177t36 177t97 145
t145.5 97t177 36t176.5 -36t145 -97t97 -145t36 -177t-36 -177t-97 -145t-145 -97t-176.5 -36zM517.5 699q-130.5 0 -223 -92t-92.5 -223t92.5 -223t223 -92t222.5 92t92 223t-92 223t-222.5 92zM664 212h-320l71 163l-63 -11l20 45l62 11l67 156h124l-55 -131l74 15
l-17 -45l-77 -15l-56 -129h196z" />
    <glyph glyph-name="etc" unicode="&#xe60a;" horiz-adv-x="1029" 
d="M517 896q-104 0 -199 -40.5t-163.5 -109t-109 -163.5t-40.5 -199t40.5 -199t109 -163.5t163.5 -109t199 -40.5t199 40.5t163.5 109t109 163.5t40.5 199t-40.5 199t-109 163.5t-163.5 109t-199 40.5zM517.5 -71q-92.5 0 -177 36t-145.5 97t-97 145t-36 177t36 177t97 145
t145.5 97t177 36t176.5 -36t145 -97t97 -145t36 -177t-36 -177t-97 -145t-145 -97t-176.5 -36zM517.5 699q-130.5 0 -223 -92t-92.5 -223t92.5 -223t223 -92t222.5 92t92 223t-92 223t-222.5 92zM678 375l-153 54v210zM520 674v-243l-3 1l-2 -1v243h5zM509 639v-210
l-153 -54zM509 129l-149 222l149 -92v-130zM515 94v177l2 -1l3 1v-177h-5zM527 129v130l151 92z" />
    <glyph glyph-name="RMB" unicode="&#xe60b;" 
d="M512 -128q-139 0 -257 68.5t-186.5 186.5t-68.5 257t68.5 257t186.5 186.5t257 68.5t257 -68.5t186.5 -186.5t68.5 -257t-68.5 -257t-186.5 -186.5t-257 -68.5zM512 839q-93 0 -177 -36t-145 -97t-97 -145t-36 -177t36 -177t97 -145t145 -97t177 -36t177 36t145 97
t97 145t36 177t-36 177t-97 145t-145 97t-177 36zM512 71q-130 0 -221.5 91.5t-91.5 221.5t91.5 221.5t221.5 91.5t221.5 -91.5t91.5 -221.5t-91.5 -221.5t-221.5 -91.5zM504 488l-87 87q-8 8 -19.5 8t-19.5 -8t-8 -19.5t8 -19.5l87 -87q8 -8 19.5 -8t19.5 8t8 19.5t-8 19.5
zM646 575q-8 8 -19.5 8t-19.5 -8l-87 -87q-8 -8 -8 -19.5t8 -19.5t19.5 -8t19.5 8l87 87q8 8 8 19.5t-8 19.5zM654 384q12 0 20.5 8.5t8.5 20t-8.5 20t-20.5 8.5h-284q-12 0 -20.5 -8.5t-8.5 -20t8.5 -20t20.5 -8.5h114v-57h-114q-12 0 -20.5 -8.5t-8.5 -20t8.5 -20
t20.5 -8.5h114v-57q0 -11 8 -19.5t20 -8.5t20 8.5t8 19.5v57h114q12 0 20.5 8.5t8.5 20t-8.5 20t-20.5 8.5h-114v57h114z" />
    <glyph glyph-name="btc" unicode="&#xe60c;" horiz-adv-x="1029" 
d="M517 896q-104 0 -199 -40.5t-163.5 -109t-109 -163.5t-40.5 -199t40.5 -199t109 -163.5t163.5 -109t199 -40.5t199 40.5t163.5 109t109 163.5t40.5 199t-40.5 199t-109 163.5t-163.5 109t-199 40.5zM517.5 -71q-92.5 0 -177 36t-145.5 97t-97 145t-36 177t36 177t97 145
t145.5 97t177 36t176.5 -36t145 -97t97 -145t36 -177t-36 -177t-97 -145t-145 -97t-176.5 -36zM517.5 699q-130.5 0 -223 -92t-92.5 -223t92.5 -223t223 -92t222.5 92t92 223t-92 223t-222.5 92zM581 202h-11v-82h-49v82h-34v-82h-49v82h-96l1 52h38q19 0 19 24v220
q0 19 -25 19h-38v51h100v79h49v-79h34v79h49v-80q46 -4 81 -23t40 -55q2 -17 -1 -32.5t-9.5 -24.5t-13.5 -16t-12 -10l-5 -3q2 -1 6.5 -2.5t16.5 -7.5t20.5 -14.5t16 -24.5t7.5 -35q2 -117 -135 -117zM551 365h-64v-106h55q79 0 79 62q0 13 -8.5 23t-21.5 14t-22.5 5.5
t-17.5 1.5zM596 468q0 45 -73 45h-36v-97h66q16 2 29.5 15t13.5 37z" />
    <glyph glyph-name="shenfenrenzheng1" unicode="&#xe60d;" horiz-adv-x="1028" 
d="M473 293q-18 8 -26.5 12t-16 10.5t-6.5 13.5t10 17q13 15 17 26v2q32 8 32 57q0 10 -6.5 18.5t-15.5 10.5q0 19 -2 30q-10 30 -33 43.5t-44 13.5q-8 0 -26 -8q-11 -5 -38 8q-10 -32 -11.5 -37.5t-2.5 -25.5q0 -2 -3 -11.5t-3 -12.5q-10 -2 -17 -11t-7 -21
q0 -15 7.5 -31.5t25.5 -22.5q1 0 1 -0.5t1 -2.5t2 -6q3 -8 21 -23q21 -18 -11 -36q-10 -5 -37 -17q-28 -12 -43 -20q-10 -3 -13 -15t-1 -22.5t6 -10.5h257q-11 25 -13 35zM548 549h204v-22h-204v22zM548 515h204v-22h-204v22zM624 447l-75 -18v-162q0 -23 11.5 -43.5
t31.5 -32.5l98 -58l103 58q18 11 31 33.5t13 43.5v0v161l-83 18q-31 7 -63 7q-34 0 -67 -7zM826 357l-155 -155l-102 102l33 33l69 -69l121 122zM514 896q-104 0 -199 -40.5t-163.5 -109t-109 -163.5t-40.5 -199t40.5 -199t109 -163.5t163.5 -109t199 -40.5t199 40.5
t163.5 109t109 163.5t40.5 199t-40.5 199t-109 163.5t-163.5 109t-199 40.5zM871 456v-188q0 -29 -18 -60.5t-44 -45.5l-120 -68l-100 59h-366q-19 0 -33 13.5t-14 33.5v372q0 19 14 33t33 14h579q20 0 33.5 -14t13.5 -33v-111z" />
  </font>
</defs>
</svg>
